<?xml version="1.0" encoding="UTF-8" standalone="no"?>
<!-- Created with Inkscape (http://www.inkscape.org/) -->

<svg
   xmlns:dc="http://purl.org/dc/elements/1.1/"
   xmlns:cc="http://creativecommons.org/ns#"
   xmlns:rdf="http://www.w3.org/1999/02/22-rdf-syntax-ns#"
   xmlns:svg="http://www.w3.org/2000/svg"
   xmlns="http://www.w3.org/2000/svg"
   xmlns:sodipodi="http://sodipodi.sourceforge.net/DTD/sodipodi-0.dtd"
   xmlns:inkscape="http://www.inkscape.org/namespaces/inkscape"
   width="413.24402"
   height="377.49609"
   id="svg2"
   version="1.1"
   inkscape:version="0.48.2 r9819"
   sodipodi:docname="leg.svg"
   inkscape:export-filename="C:\Users\Cosa\Dropbox\PR\quadruped\figures\leg.png"
   inkscape:export-xdpi="50"
   inkscape:export-ydpi="50">
  <defs
     id="defs4">
    <marker
       inkscape:stockid="Arrow1Mstart"
       orient="auto"
       refY="0"
       refX="0"
       id="Arrow1Mstart"
       style="overflow:visible">
      <path
         id="path3834"
         d="M 0,0 5,-5 -12.5,0 5,5 0,0 z"
         style="fill-rule:evenodd;stroke:#000000;stroke-width:1pt"
         transform="matrix(0.4,0,0,0.4,4,0)"
         inkscape:connector-curvature="0" />
    </marker>
    <marker
       inkscape:stockid="Arrow1Lstart"
       orient="auto"
       refY="0"
       refX="0"
       id="Arrow1Lstart"
       style="overflow:visible">
      <path
         id="path3828"
         d="M 0,0 5,-5 -12.5,0 5,5 0,0 z"
         style="fill-rule:evenodd;stroke:#000000;stroke-width:1pt"
         transform="matrix(0.8,0,0,0.8,10,0)"
         inkscape:connector-curvature="0" />
    </marker>
    <marker
       inkscape:stockid="Arrow2Lstart"
       orient="auto"
       refY="0"
       refX="0"
       id="Arrow2Lstart"
       style="overflow:visible">
      <path
         id="path3846"
         style="fill-rule:evenodd;stroke-width:0.625;stroke-linejoin:round"
         d="M 8.7185878,4.0337352 -2.2072895,0.01601326 8.7185884,-4.0017078 c -1.7454984,2.3720609 -1.7354408,5.6174519 -6e-7,8.035443 z"
         transform="matrix(1.1,0,0,1.1,1.1,0)"
         inkscape:connector-curvature="0" />
    </marker>
    <marker
       inkscape:stockid="Arrow1Mend"
       orient="auto"
       refY="0"
       refX="0"
       id="Arrow1Mend"
       style="overflow:visible">
      <path
         id="path3837"
         d="M 0,0 5,-5 -12.5,0 5,5 0,0 z"
         style="fill-rule:evenodd;stroke:#000000;stroke-width:1pt"
         transform="matrix(-0.4,0,0,-0.4,-4,0)"
         inkscape:connector-curvature="0" />
    </marker>
    <marker
       inkscape:stockid="Arrow2Mstart"
       orient="auto"
       refY="0"
       refX="0"
       id="Arrow2Mstart"
       style="overflow:visible">
      <path
         id="path3852"
         style="fill-rule:evenodd;stroke-width:0.625;stroke-linejoin:round"
         d="M 8.7185878,4.0337352 -2.2072895,0.01601326 8.7185884,-4.0017078 c -1.7454984,2.3720609 -1.7354408,5.6174519 -6e-7,8.035443 z"
         transform="scale(0.6,0.6)"
         inkscape:connector-curvature="0" />
    </marker>
    <marker
       inkscape:stockid="Arrow2Mend"
       orient="auto"
       refY="0"
       refX="0"
       id="Arrow2Mend"
       style="overflow:visible">
      <path
         id="path3855"
         style="fill-rule:evenodd;stroke-width:0.625;stroke-linejoin:round"
         d="M 8.7185878,4.0337352 -2.2072895,0.01601326 8.7185884,-4.0017078 c -1.7454984,2.3720609 -1.7354408,5.6174519 -6e-7,8.035443 z"
         transform="scale(-0.6,-0.6)"
         inkscape:connector-curvature="0" />
    </marker>
    <marker
       inkscape:stockid="Arrow2Sstart"
       orient="auto"
       refY="0"
       refX="0"
       id="Arrow2Sstart"
       style="overflow:visible">
      <path
         id="path3858"
         style="fill-rule:evenodd;stroke-width:0.625;stroke-linejoin:round"
         d="M 8.7185878,4.0337352 -2.2072895,0.01601326 8.7185884,-4.0017078 c -1.7454984,2.3720609 -1.7354408,5.6174519 -6e-7,8.035443 z"
         transform="matrix(0.3,0,0,0.3,-0.69,0)"
         inkscape:connector-curvature="0" />
    </marker>
    <marker
       inkscape:stockid="Arrow2Mstart"
       orient="auto"
       refY="0"
       refX="0"
       id="Arrow2Mstart-0"
       style="overflow:visible">
      <path
         inkscape:connector-curvature="0"
         id="path3852-9"
         style="fill-rule:evenodd;stroke-width:0.625;stroke-linejoin:round"
         d="M 8.7185878,4.0337352 -2.2072895,0.01601326 8.7185884,-4.0017078 c -1.7454984,2.3720609 -1.7354408,5.6174519 -6e-7,8.035443 z"
         transform="scale(0.6,0.6)" />
    </marker>
    <marker
       inkscape:stockid="Arrow2Mend"
       orient="auto"
       refY="0"
       refX="0"
       id="Arrow2Mend-4"
       style="overflow:visible">
      <path
         inkscape:connector-curvature="0"
         id="path3855-8"
         style="fill-rule:evenodd;stroke-width:0.625;stroke-linejoin:round"
         d="M 8.7185878,4.0337352 -2.2072895,0.01601326 8.7185884,-4.0017078 c -1.7454984,2.3720609 -1.7354408,5.6174519 -6e-7,8.035443 z"
         transform="scale(-0.6,-0.6)" />
    </marker>
    <marker
       inkscape:stockid="Arrow2Mstart"
       orient="auto"
       refY="0"
       refX="0"
       id="Arrow2Mstart-2"
       style="overflow:visible">
      <path
         inkscape:connector-curvature="0"
         id="path3852-4"
         style="fill-rule:evenodd;stroke-width:0.625;stroke-linejoin:round"
         d="M 8.7185878,4.0337352 -2.2072895,0.01601326 8.7185884,-4.0017078 c -1.7454984,2.3720609 -1.7354408,5.6174519 -6e-7,8.035443 z"
         transform="scale(0.6,0.6)" />
    </marker>
    <marker
       inkscape:stockid="Arrow2Mend"
       orient="auto"
       refY="0"
       refX="0"
       id="Arrow2Mend-5"
       style="overflow:visible">
      <path
         inkscape:connector-curvature="0"
         id="path3855-5"
         style="fill-rule:evenodd;stroke-width:0.625;stroke-linejoin:round"
         d="M 8.7185878,4.0337352 -2.2072895,0.01601326 8.7185884,-4.0017078 c -1.7454984,2.3720609 -1.7354408,5.6174519 -6e-7,8.035443 z"
         transform="scale(-0.6,-0.6)" />
    </marker>
    <marker
       inkscape:stockid="Arrow2Mstart"
       orient="auto"
       refY="0"
       refX="0"
       id="Arrow2Mstart-7"
       style="overflow:visible">
      <path
         inkscape:connector-curvature="0"
         id="path3852-1"
         style="fill-rule:evenodd;stroke-width:0.625;stroke-linejoin:round"
         d="M 8.7185878,4.0337352 -2.2072895,0.01601326 8.7185884,-4.0017078 c -1.7454984,2.3720609 -1.7354408,5.6174519 -6e-7,8.035443 z"
         transform="scale(0.6,0.6)" />
    </marker>
    <marker
       inkscape:stockid="Arrow2Mend"
       orient="auto"
       refY="0"
       refX="0"
       id="Arrow2Mend-1"
       style="overflow:visible">
      <path
         inkscape:connector-curvature="0"
         id="path3855-52"
         style="fill-rule:evenodd;stroke-width:0.625;stroke-linejoin:round"
         d="M 8.7185878,4.0337352 -2.2072895,0.01601326 8.7185884,-4.0017078 c -1.7454984,2.3720609 -1.7354408,5.6174519 -6e-7,8.035443 z"
         transform="scale(-0.6,-0.6)" />
    </marker>
  </defs>
  <sodipodi:namedview
     id="base"
     pagecolor="#ffffff"
     bordercolor="#666666"
     borderopacity="1.0"
     inkscape:pageopacity="0.0"
     inkscape:pageshadow="2"
     inkscape:zoom="0.70000001"
     inkscape:cx="287.2177"
     inkscape:cy="281.30167"
     inkscape:document-units="px"
     inkscape:current-layer="layer1"
     showgrid="false"
     fit-margin-top="0"
     fit-margin-left="0"
     fit-margin-right="0"
     fit-margin-bottom="0"
     inkscape:window-width="1920"
     inkscape:window-height="1017"
     inkscape:window-x="1672"
     inkscape:window-y="-8"
     inkscape:window-maximized="1" />
  <metadata
     id="metadata7">
    <rdf:RDF>
      <cc:Work
         rdf:about="">
        <dc:format>image/svg+xml</dc:format>
        <dc:type
           rdf:resource="http://purl.org/dc/dcmitype/StillImage" />
        <dc:title></dc:title>
      </cc:Work>
    </rdf:RDF>
  </metadata>
  <g
     inkscape:label="Layer 1"
     inkscape:groupmode="layer"
     id="layer1"
     transform="translate(-112.35174,-439.5636)">
    <path
       style="fill:none;stroke:#ff0000;stroke-width:5;stroke-linecap:butt;stroke-linejoin:miter;stroke-miterlimit:4;stroke-opacity:1;stroke-dasharray:none"
       d="m 213.06635,540.61822 0,102.42096"
       id="path3002"
       inkscape:connector-curvature="0" />
    <path
       style="fill:none;stroke:#000000;stroke-width:3;stroke-linecap:butt;stroke-linejoin:miter;stroke-miterlimit:4;stroke-opacity:1;stroke-dasharray:9,3;stroke-dashoffset:0"
       d="m 433.3665,498.00485 71.12789,189.67437"
       id="path2989"
       inkscape:connector-curvature="0" />
    <path
       style="fill:none;stroke:#000000;stroke-width:3;stroke-linecap:butt;stroke-linejoin:miter;stroke-miterlimit:4;stroke-opacity:1;stroke-dasharray:9,3;stroke-dashoffset:0"
       d="M 287.52667,605.79349 433.99879,497.20209"
       id="path3759"
       inkscape:connector-curvature="0" />
    <path
       style="fill:none;stroke:#000000;stroke-width:3;stroke-linecap:butt;stroke-linejoin:miter;stroke-miterlimit:4;stroke-opacity:1;stroke-dasharray:9,3;stroke-dashoffset:0"
       d="m 214.47814,594.66014 73.10979,9.47018"
       id="path3761"
       inkscape:connector-curvature="0" />
    <path
       sodipodi:type="arc"
       style="fill:none;stroke:#000000;stroke-width:4.99974442;stroke-miterlimit:4;stroke-opacity:1;stroke-dasharray:none;stroke-dashoffset:0;marker-start:url(#Arrow2Mstart);marker-mid:none;marker-end:url(#Arrow2Mend)"
       id="path3822-8"
       sodipodi:cx="34.850262"
       sodipodi:cy="238.19676"
       sodipodi:rx="98.489876"
       sodipodi:ry="62.629459"
       d="m 104.49312,193.91104 c 38.46269,24.45833 38.46269,64.11311 0,88.57144 -38.462684,24.45832 -100.8230236,24.45832 -139.285714,0 -38.462691,-24.45832 -38.462694,-64.11311 -6e-6,-88.57143 9.898715,-6.29457 21.793877,-11.17497 34.89245876,-14.31583"
       transform="matrix(0.30277171,0,0,0.213692,200.76974,508.37715)"
       sodipodi:start="5.4977871"
       sodipodi:end="10.634978"
       sodipodi:open="true" />
    <path
       sodipodi:type="arc"
       style="fill:none;stroke:#000000;stroke-width:4.99974442;stroke-miterlimit:4;stroke-opacity:1;stroke-dasharray:none;stroke-dashoffset:0;marker-start:url(#Arrow2Mstart);marker-mid:none;marker-end:url(#Arrow2Mend)"
       id="path3822-1"
       sodipodi:cx="34.850262"
       sodipodi:cy="238.19676"
       sodipodi:rx="98.489876"
       sodipodi:ry="62.629459"
       d="m 104.49312,193.91104 c 38.46269,24.45833 38.46269,64.11311 0,88.57144 -38.462684,24.45832 -100.8230236,24.45832 -139.285714,0 -38.462691,-24.45832 -38.462694,-64.11311 -6e-6,-88.57143 9.898715,-6.29457 21.793877,-11.17497 34.89245876,-14.31583"
       transform="matrix(0.30277171,0,0,0.49519511,257.65369,522.54867)"
       sodipodi:start="5.4977871"
       sodipodi:end="10.634978"
       sodipodi:open="true" />
    <path
       sodipodi:type="arc"
       style="fill:none;stroke:#000000;stroke-width:4.99974442;stroke-miterlimit:4;stroke-opacity:1;stroke-dasharray:none;stroke-dashoffset:0;marker-start:url(#Arrow2Mstart);marker-mid:none;marker-end:url(#Arrow2Mend)"
       id="path3822-1-7"
       sodipodi:cx="34.850262"
       sodipodi:cy="238.19676"
       sodipodi:rx="98.489876"
       sodipodi:ry="62.629459"
       d="m 104.49312,193.91104 c 38.46269,24.45833 38.46269,64.11311 0,88.57144 -38.462684,24.45832 -100.8230236,24.45832 -139.285714,0 -38.462691,-24.45832 -38.462694,-64.11311 -6e-6,-88.57143 9.898715,-6.29457 21.793877,-11.17497 34.89245876,-14.31583"
       transform="matrix(0.30277171,0,0,0.49519511,412.65369,402.54869)"
       sodipodi:start="5.4977871"
       sodipodi:end="10.634978"
       sodipodi:open="true" />
    <path
       style="fill:none;stroke:#ff0000;stroke-width:5;stroke-linecap:butt;stroke-linejoin:miter;stroke-miterlimit:4;stroke-opacity:1;stroke-dasharray:none"
       d="m 454.79979,462.00815 -43.87478,80.67651"
       id="path3002-4-0-4"
       inkscape:connector-curvature="0" />
    <path
       style="fill:none;stroke:#ff0000;stroke-width:5;stroke-linecap:butt;stroke-linejoin:miter;stroke-miterlimit:4;stroke-opacity:1;stroke-dasharray:none"
       d="M 312.0907,560.95249 268.21592,641.629"
       id="path3002-4-0"
       inkscape:connector-curvature="0" />
    <g
       id="g7102"
       transform="translate(137.85714,50.714286)">
      <g
         style="stroke:#000000;stroke-opacity:1"
         transform="translate(-197.53665,-43.335034)"
         id="g3817">
        <path
           style="fill:none;stroke:#000000;stroke-width:5;stroke-linecap:butt;stroke-linejoin:miter;stroke-miterlimit:4;stroke-opacity:1;stroke-dasharray:none"
           d="m 214.16247,726.16938 73.10979,9.47018"
           id="path3761-1"
           inkscape:connector-curvature="0" />
        <path
           style="fill:none;stroke:#000000;stroke-width:5;stroke-linecap:butt;stroke-linejoin:miter;stroke-miterlimit:4;stroke-opacity:1;stroke-dasharray:none"
           d="m 218.10652,722.8911 -43.87478,80.67651"
           id="path3002-4-0-7"
           inkscape:connector-curvature="0" />
        <path
           style="fill:none;stroke:#000000;stroke-width:5;stroke-linecap:butt;stroke-linejoin:miter;stroke-miterlimit:4;stroke-opacity:1;stroke-dasharray:none"
           d="m 216.37217,626.1559 0,102.42096"
           id="path3002-4"
           inkscape:connector-curvature="0" />
      </g>
      <text
         sodipodi:linespacing="125%"
         id="text7049"
         y="592.72321"
         x="-4.6517859"
         style="font-size:24px;font-style:normal;font-weight:normal;line-height:125%;letter-spacing:0px;word-spacing:0px;fill:#000000;fill-opacity:1;stroke:none;font-family:Sans"
         xml:space="preserve"><tspan
           y="592.72321"
           x="-4.6517859"
           id="tspan7051"
           sodipodi:role="line">z</tspan></text>
      <text
         sodipodi:linespacing="125%"
         id="text7053"
         y="713.4375"
         x="73.91964"
         style="font-size:24px;font-style:normal;font-weight:normal;line-height:125%;letter-spacing:0px;word-spacing:0px;fill:#000000;fill-opacity:1;stroke:none;font-family:Sans"
         xml:space="preserve"><tspan
           y="713.4375"
           x="73.91964"
           id="tspan7055"
           sodipodi:role="line">x</tspan></text>
      <text
         sodipodi:linespacing="125%"
         id="text7057"
         y="761.29462"
         x="-7.5089331"
         style="font-size:24px;font-style:normal;font-weight:normal;line-height:125%;letter-spacing:0px;word-spacing:0px;fill:#000000;fill-opacity:1;stroke:none;font-family:Sans"
         xml:space="preserve"><tspan
           y="761.29462"
           x="-7.5089331"
           id="tspan7059"
           sodipodi:role="line">y</tspan></text>
    </g>
    <text
       xml:space="preserve"
       style="font-size:24px;font-style:normal;font-weight:normal;line-height:125%;letter-spacing:0px;word-spacing:0px;fill:#ff0000;fill-opacity:1;stroke:none;font-family:Sans"
       x="207.49107"
       y="529.86609"
       id="text7061"
       sodipodi:linespacing="125%"><tspan
         sodipodi:role="line"
         id="tspan7063"
         x="207.49107"
         y="529.86609">z</tspan></text>
    <text
       xml:space="preserve"
       style="font-size:24px;font-style:normal;font-weight:normal;line-height:125%;letter-spacing:0px;word-spacing:0px;fill:#ff0000;fill-opacity:1;stroke:none;font-family:Sans"
       x="311.77679"
       y="552.72321"
       id="text7065"
       sodipodi:linespacing="125%"><tspan
         sodipodi:role="line"
         id="tspan7067"
         x="311.77679"
         y="552.72321">y</tspan></text>
    <text
       xml:space="preserve"
       style="font-size:24px;font-style:normal;font-weight:normal;line-height:125%;letter-spacing:0px;word-spacing:0px;fill:#ff0000;fill-opacity:1;stroke:none;font-family:Sans"
       x="453.91962"
       y="452.00891"
       id="text7069"
       sodipodi:linespacing="125%"><tspan
         sodipodi:role="line"
         id="tspan7071"
         x="453.91962"
         y="452.00891">y</tspan></text>
    <path
       sodipodi:type="arc"
       style="fill:#0000c8;fill-opacity:1;stroke:none"
       id="path7143"
       sodipodi:cx="125.00638"
       sodipodi:cy="345.52545"
       sodipodi:rx="11.364216"
       sodipodi:ry="11.364216"
       d="m 136.37059,345.52545 c 0,6.27628 -5.08793,11.36422 -11.36421,11.36422 -6.27628,0 -11.36422,-5.08794 -11.36422,-11.36422 0,-6.27628 5.08794,-11.36421 11.36422,-11.36421 6.27628,0 11.36421,5.08793 11.36421,11.36421 z"
       transform="matrix(0.66666666,0,0,0.66666666,130.00415,365.19372)" />
    <path
       sodipodi:type="arc"
       style="fill:#0000c8;fill-opacity:1;stroke:none"
       id="path7143-3"
       sodipodi:cx="125.00638"
       sodipodi:cy="345.52545"
       sodipodi:rx="11.364216"
       sodipodi:ry="11.364216"
       d="m 136.37059,345.52545 c 0,6.27628 -5.08793,11.36422 -11.36421,11.36422 -6.27628,0 -11.36422,-5.08794 -11.36422,-11.36422 0,-6.27628 5.08794,-11.36421 11.36422,-11.36421 6.27628,0 11.36421,5.08793 11.36421,11.36421 z"
       transform="matrix(0.66666666,0,0,0.66666666,205.11692,373.96204)" />
    <path
       sodipodi:type="arc"
       style="fill:#0000c8;fill-opacity:1;stroke:none"
       id="path7143-2"
       sodipodi:cx="125.00638"
       sodipodi:cy="345.52545"
       sodipodi:rx="11.364216"
       sodipodi:ry="11.364216"
       d="m 136.37059,345.52545 c 0,6.27628 -5.08793,11.36422 -11.36421,11.36422 -6.27628,0 -11.36422,-5.08794 -11.36422,-11.36422 0,-6.27628 5.08794,-11.36421 11.36422,-11.36421 6.27628,0 11.36421,5.08793 11.36421,11.36421 z"
       transform="matrix(0.66666666,0,0,0.66666666,349.51063,270.5872)" />
    <path
       sodipodi:type="arc"
       style="fill:#0000c8;fill-opacity:1;stroke:none"
       id="path7143-2-5"
       sodipodi:cx="125.00638"
       sodipodi:cy="345.52545"
       sodipodi:rx="11.364216"
       sodipodi:ry="11.364216"
       d="m 136.37059,345.52545 c 0,6.27628 -5.08793,11.36422 -11.36421,11.36422 -6.27628,0 -11.36422,-5.08794 -11.36422,-11.36422 0,-6.27628 5.08794,-11.36421 11.36422,-11.36421 6.27628,0 11.36421,5.08793 11.36421,11.36421 z"
       transform="matrix(0.66666666,0,0,0.66666666,421.43315,456.61253)" />
    <text
       xml:space="preserve"
       style="font-size:22px;font-style:normal;font-weight:normal;line-height:125%;letter-spacing:0px;word-spacing:0px;fill:#000000;fill-opacity:1;stroke:none;font-family:Sans"
       x="458.06604"
       y="719.91687"
       id="text3904"
       sodipodi:linespacing="125%"><tspan
         sodipodi:role="line"
         id="tspan3906"
         x="458.06604"
         y="719.91687">foot #</tspan></text>
    <text
       xml:space="preserve"
       style="font-size:22px;font-style:normal;font-weight:normal;line-height:125%;letter-spacing:0px;word-spacing:0px;fill:#000000;fill-opacity:1;stroke:none;font-family:Sans"
       x="340.92319"
       y="479.20255"
       id="text3908"
       sodipodi:linespacing="125%"><tspan
         sodipodi:role="line"
         id="tspan3910"
         x="340.92319"
         y="479.20255">pivot #,2</tspan></text>
    <text
       xml:space="preserve"
       style="font-size:22px;font-style:normal;font-weight:normal;line-height:125%;letter-spacing:0px;word-spacing:0px;fill:#000000;fill-opacity:1;stroke:none;font-family:Sans"
       x="308.7803"
       y="612.77399"
       id="text3912"
       sodipodi:linespacing="125%"><tspan
         sodipodi:role="line"
         id="tspan3914"
         x="308.7803"
         y="612.77399">pivot #,1</tspan></text>
    <text
       xml:space="preserve"
       style="font-size:22px;font-style:normal;font-weight:normal;line-height:125%;letter-spacing:0px;word-spacing:0px;fill:#000000;fill-opacity:1;stroke:none;font-family:Sans"
       x="116.63745"
       y="594.91681"
       id="text3916"
       sodipodi:linespacing="125%"><tspan
         sodipodi:role="line"
         id="tspan3918"
         x="116.63745"
         y="594.91681">pivot #,0</tspan></text>
    <text
       xml:space="preserve"
       style="font-size:43.51496506px;font-style:normal;font-weight:normal;line-height:125%;letter-spacing:0px;word-spacing:0px;fill:#000000;fill-opacity:1;stroke:none;font-family:Sans"
       x="117.20451"
       y="479.05609"
       id="text3920"
       sodipodi:linespacing="125%"><tspan
         sodipodi:role="line"
         id="tspan3922"
         x="117.20451"
         y="479.05609">Leg Setup</tspan></text>
  </g>
</svg>
